HIERARCHY
ROOT pelvis
{
	OFFSET 0.003123 -0.351407 0.012037
	CHANNELS 6 Xposition Yposition Zposition Zrotation Yrotation Xrotation 
	JOINT left_hip
	{
		OFFSET 0.058189 -0.092763 -0.026001
		CHANNELS 3 Zrotation Yrotation Xrotation
		JOINT left_knee
		{
			OFFSET 0.054695 -0.378753 -0.009396
			CHANNELS 3 Zrotation Yrotation Xrotation
			JOINT left_ankle
			{
				OFFSET -0.043453 -0.403059 -0.031876
				CHANNELS 3 Zrotation Yrotation Xrotation
				JOINT left_foot
				{
					OFFSET 0.047257 -0.057997 0.118216
					CHANNELS 3 Zrotation Yrotation Xrotation
					End Site
					{
						OFFSET 0.000000 0.000000 0.000000
					}
				}
			}
		}
	}
	JOINT right_hip
	{
		OFFSET -0.063267 -0.103908 -0.021250
		CHANNELS 3 Zrotation Yrotation Xrotation
		JOINT right_knee
		{
			OFFSET -0.044210 -0.362380 -0.016824
			CHANNELS 3 Zrotation Yrotation Xrotation
			JOINT right_ankle
			{
				OFFSET 0.015417 -0.410728 -0.020192
				CHANNELS 3 Zrotation Yrotation Xrotation
				JOINT right_foot
				{
					OFFSET -0.038812 -0.058328 0.119049
					CHANNELS 3 Zrotation Yrotation Xrotation
					End Site
					{
						OFFSET 0.000000 0.000000 0.000000
					}
				}
			}
		}
	}
	JOINT spine_1
	{
		OFFSET -0.002763 0.109891 -0.027618
		CHANNELS 3 Zrotation Yrotation Xrotation
		JOINT spine_2
		{
			OFFSET 0.009448 0.131853 -0.005940
			CHANNELS 3 Zrotation Yrotation Xrotation
			JOINT spine_3
			{
				OFFSET -0.011330 0.052235 0.028447
				CHANNELS 3 Zrotation Yrotation Xrotation
				JOINT neck
				{
					OFFSET -0.012164 0.165167 -0.031615
					CHANNELS 3 Zrotation Yrotation Xrotation
					JOINT head
					{
						OFFSET 0.024783 0.160452 0.020737
						CHANNELS 3 Zrotation Yrotation Xrotation
						End Site
						{
							OFFSET 0.000000 0.000000 0.000000
						}
					}
				}
				JOINT left_collar
				{
					OFFSET 0.046364 0.084944 -0.007220
					CHANNELS 3 Zrotation Yrotation Xrotation
					JOINT left_shoulder
					{
						OFFSET 0.119239 0.057728 -0.015461
						CHANNELS 3 Zrotation Yrotation Xrotation
						JOINT left_elbow
						{
							OFFSET 0.254123 -0.072151 -0.042459
							CHANNELS 3 Zrotation Yrotation Xrotation
							JOINT left_wrist
							{
								OFFSET 0.251987 0.023221 -0.002472
								CHANNELS 3 Zrotation Yrotation Xrotation
								JOINT left_index_1
								{
									OFFSET 0.101902 -0.008688 0.019351
									CHANNELS 3 Zrotation Yrotation Xrotation
									JOINT left_index_2
									{
										OFFSET 0.030149 -0.011154 0.001151
										CHANNELS 3 Zrotation Yrotation Xrotation
										JOINT left_index_3
										{
											OFFSET 0.006504 -0.021577 -0.002433
											CHANNELS 3 Zrotation Yrotation Xrotation
											End Site
											{
												OFFSET 0.000000 0.000000 0.000000
											}
										}
									}
								}
								JOINT left_middle_1
								{
									OFFSET 0.109398 -0.006328 -0.003981
									CHANNELS 3 Zrotation Yrotation Xrotation
									JOINT left_middle_2
									{
										OFFSET 0.026472 -0.015218 -0.004641
										CHANNELS 3 Zrotation Yrotation Xrotation
										JOINT left_middle_3
										{
											OFFSET 0.005022 -0.023347 -0.001911
											CHANNELS 3 Zrotation Yrotation Xrotation
											End Site
											{
												OFFSET 0.000000 0.000000 0.000000
											}
										}
									}
								}
								JOINT left_pinky_1
								{
									OFFSET 0.084047 -0.014539 -0.043750
									CHANNELS 3 Zrotation Yrotation Xrotation
									JOINT left_pinky_2
									{
										OFFSET 0.012124 -0.014448 -0.005375
										CHANNELS 3 Zrotation Yrotation Xrotation
										JOINT left_pinky_3
										{
											OFFSET 0.003798 -0.018853 0.000167
											CHANNELS 3 Zrotation Yrotation Xrotation
											End Site
											{
												OFFSET 0.000000 0.000000 0.000000
											}
										}
									}
								}
								JOINT left_ring_1
								{
									OFFSET 0.097444 -0.009268 -0.027345
									CHANNELS 3 Zrotation Yrotation Xrotation
									JOINT left_ring_2
									{
										OFFSET 0.023561 -0.016057 -0.001895
										CHANNELS 3 Zrotation Yrotation Xrotation
										JOINT left_ring_3
										{
											OFFSET 0.004257 -0.023548 0.000814
											CHANNELS 3 Zrotation Yrotation Xrotation
											End Site
											{
												OFFSET 0.000000 0.000000 0.000000
											}
										}
									}
								}
								JOINT left_thumb_1
								{
									OFFSET 0.040636 -0.017977 0.025611
									CHANNELS 3 Zrotation Yrotation Xrotation
									JOINT left_thumb_2
									{
										OFFSET 0.021637 -0.017639 0.011623
										CHANNELS 3 Zrotation Yrotation Xrotation
										JOINT left_thumb_3
										{
											OFFSET 0.024002 -0.008356 0.006548
											CHANNELS 3 Zrotation Yrotation Xrotation
											End Site
											{
												OFFSET 0.000000 0.000000 0.000000
											}
										}
									}
								}
							}
						}
					}
				}
				JOINT right_collar
				{
					OFFSET -0.047695 0.084339 -0.013400
					CHANNELS 3 Zrotation Yrotation Xrotation
					JOINT right_shoulder
					{
						OFFSET -0.102578 0.053524 -0.012669
						CHANNELS 3 Zrotation Yrotation Xrotation
						JOINT right_elbow
						{
							OFFSET -0.271150 -0.036492 -0.026467
							CHANNELS 3 Zrotation Yrotation Xrotation
							JOINT right_wrist
							{
								OFFSET -0.249267 -0.004533 -0.015325
								CHANNELS 3 Zrotation Yrotation Xrotation
								JOINT right_index_1
								{
									OFFSET -0.099881 -0.011783 0.019600
									CHANNELS 3 Zrotation Yrotation Xrotation
									JOINT right_index_2
									{
										OFFSET -0.030148 -0.011154 0.001151
										CHANNELS 3 Zrotation Yrotation Xrotation
										JOINT right_index_3
										{
											OFFSET -0.006505 -0.021577 -0.002432
											CHANNELS 3 Zrotation Yrotation Xrotation
											End Site
											{
												OFFSET 0.000000 0.000000 0.000000
											}
										}
									}
								}
								JOINT right_middle_1
								{
									OFFSET -0.107376 -0.009422 -0.003734
									CHANNELS 3 Zrotation Yrotation Xrotation
									JOINT right_middle_2
									{
										OFFSET -0.026472 -0.015218 -0.004641
										CHANNELS 3 Zrotation Yrotation Xrotation
										JOINT right_middle_3
										{
											OFFSET -0.005022 -0.023347 -0.001911
											CHANNELS 3 Zrotation Yrotation Xrotation
											End Site
											{
												OFFSET 0.000000 0.000000 0.000000
											}
										}
									}
								}
								JOINT right_pinky_1
								{
									OFFSET -0.082027 -0.017634 -0.043503
									CHANNELS 3 Zrotation Yrotation Xrotation
									JOINT right_pinky_2
									{
										OFFSET -0.012123 -0.014448 -0.005374
										CHANNELS 3 Zrotation Yrotation Xrotation
										JOINT right_pinky_3
										{
											OFFSET -0.003798 -0.018852 0.000167
											CHANNELS 3 Zrotation Yrotation Xrotation
											End Site
											{
												OFFSET 0.000000 0.000000 0.000000
											}
										}
									}
								}
								JOINT right_ring_1
								{
									OFFSET -0.095423 -0.012362 -0.027099
									CHANNELS 3 Zrotation Yrotation Xrotation
									JOINT right_ring_2
									{
										OFFSET -0.023561 -0.016057 -0.001895
										CHANNELS 3 Zrotation Yrotation Xrotation
										JOINT right_ring_3
										{
											OFFSET -0.004257 -0.023548 0.000816
											CHANNELS 3 Zrotation Yrotation Xrotation
											End Site
											{
												OFFSET 0.000000 0.000000 0.000000
											}
										}
									}
								}
								JOINT right_thumb_1
								{
									OFFSET -0.038613 -0.021074 0.025861
									CHANNELS 3 Zrotation Yrotation Xrotation
									JOINT right_thumb_2
									{
										OFFSET -0.021636 -0.017639 0.011623
										CHANNELS 3 Zrotation Yrotation Xrotation
										JOINT right_thumb_3
										{
											OFFSET -0.024004 -0.008353 0.006547
											CHANNELS 3 Zrotation Yrotation Xrotation
											End Site
											{
												OFFSET 0.000000 0.000000 0.000000
											}
										}
									}
								}
							}
						}
					}
				}
			}
		}
	}
}
MOTION
Frames: 4
Frame Time: 0.050000
0.000027 0.689674 0.000587 4.739368 -2.501082 -12.701759 1.757787 -7.792811 -60.126014 -7.075318 -2.892368 78.813031 -11.553333 -25.985156 -0.833806 0.000000 0.000000 0.000000 -1.860984 7.317537 -56.878862 28.470861 -12.802293 51.718368 -55.679249 -56.887839 38.236194 0.000000 0.000000 0.000000 -2.976322 -1.467546 35.797185 -7.083121 -0.670525 -15.979366 -1.926482 -9.150511 22.121817 1.129862 1.881717 -13.585253 0.000000 0.000000 0.000000 6.362719 8.676934 -3.769812 -60.637826 -31.757021 1.392479 -51.101020 -40.607254 25.629746 10.111565 -23.394258 43.883380 -6.839217 -0.649278 -0.813560 32.155819 -5.258058 7.489787 0.000000 0.000000 0.000000 9.808657 0.105406 0.775900 -15.410420 8.775664 6.701606 0.000000 0.000000 0.000000 48.518057 -3.305492 -1.079470 -29.618132 39.893014 21.463680 0.000000 0.000000 0.000000 24.584674 1.506574 -2.547813 -19.650195 19.378427 17.074391 0.000000 0.000000 0.000000 -14.466379 14.170140 9.507891 -5.880420 -14.264684 -2.381816 0.000000 0.000000 0.000000 -2.002874 19.305276 9.710651 60.476898 35.448286 4.723705 16.661519 60.355369 7.704228 -21.264048 6.463226 31.819893 5.351215 1.517196 -0.592425 -11.548173 2.379608 3.603014 0.000000 0.000000 0.000000 -14.937399 -0.203398 1.480785 7.103628 -2.903786 4.808080 0.000000 0.000000 0.000000 -31.131997 3.499464 4.099102 27.993617 -11.362911 6.837350 0.000000 0.000000 0.000000 -19.479984 -2.405537 0.527093 21.216721 -9.653585 12.296191 0.000000 0.000000 0.000000 9.888253 -3.989750 4.040496 6.949866 5.427094 0.964036 0.000000 0.000000 0.000000 
0.000027 0.689674 -0.000732 4.663994 -2.128130 -12.910340 1.509842 -8.053820 -60.003710 -6.910678 -3.148196 78.782609 -11.732259 -26.030584 -0.560679 0.000000 0.000000 0.000000 -2.077780 7.053145 -56.626853 28.709744 -12.936046 51.446842 -55.789526 -56.856500 38.405951 0.000000 0.000000 0.000000 -2.944724 -1.511106 36.122407 -6.833279 -0.778513 -16.081124 -2.076845 -9.217082 22.192479 1.214162 1.817738 -13.243352 0.000000 0.000000 0.000000 6.510368 8.600988 -3.713476 -60.591552 -32.152140 1.475096 -51.091754 -40.431078 25.485985 10.208435 -23.474598 43.665406 -7.248329 -0.205821 -0.649089 32.380323 -5.597895 6.255164 0.000000 0.000000 0.000000 9.798554 -0.123152 0.666646 -15.346388 9.089649 7.517673 0.000000 0.000000 0.000000 48.689862 -3.136222 -0.894164 -30.952042 38.788848 19.775419 0.000000 0.000000 0.000000 24.479331 1.221560 -2.640758 -19.403967 19.005019 16.920607 0.000000 0.000000 0.000000 -14.375761 14.484089 9.757405 -6.505070 -14.751589 -2.256389 0.000000 0.000000 0.000000 -2.156331 19.189941 9.649399 60.613938 35.470889 4.794520 16.605282 59.976030 7.621471 -21.937605 7.450201 30.799939 6.087389 1.333936 -0.484051 -11.718582 2.253480 4.199787 0.000000 0.000000 0.000000 -14.191722 -0.241895 1.463808 6.662724 -2.949179 5.979602 0.000000 0.000000 0.000000 -28.625492 2.443289 4.689589 24.876239 -10.091709 6.754481 0.000000 0.000000 0.000000 -19.504583 -2.749142 0.709870 20.672677 -9.299422 12.409447 0.000000 0.000000 0.000000 10.199051 -3.955757 4.117101 7.335213 5.008250 1.208637 0.000000 0.000000 0.000000 
0.000086 0.689674 -0.002052 4.623504 -2.154162 -12.914987 1.493191 -8.065082 -60.077818 -6.794803 -3.247952 78.706347 -11.900676 -25.994067 -0.264117 0.000000 0.000000 0.000000 -2.197107 7.008834 -56.673391 28.706052 -12.930004 51.456752 -54.803363 -56.467185 37.818190 0.000000 0.000000 0.000000 -2.943313 -1.509933 36.120663 -6.826561 -0.777708 -16.063495 -2.046303 -9.210573 22.182486 1.362807 1.803405 -13.215259 0.000000 0.000000 0.000000 6.674163 8.231980 -3.544306 -60.412840 -32.596941 1.596970 -50.906096 -40.253011 25.267650 10.259212 -23.134568 44.851322 -5.459713 -2.252062 -1.505418 30.724163 -4.855451 8.070945 0.000000 0.000000 0.000000 10.588969 -1.398018 -0.015448 -15.584240 10.055112 8.521290 0.000000 0.000000 0.000000 44.370579 -2.517699 -0.386036 -28.806456 34.188061 17.479465 0.000000 0.000000 0.000000 22.626752 1.725375 -2.102843 -19.206577 16.627763 12.493106 0.000000 0.000000 0.000000 -13.970122 12.466636 8.221601 -6.199236 -13.885601 -2.073886 0.000000 0.000000 0.000000 -2.122383 19.211618 9.660484 60.519600 35.461451 4.772412 16.593898 59.768229 7.573822 -22.326221 7.621281 30.896635 5.921623 1.425755 -0.505397 -10.467567 1.984778 4.218907 0.000000 0.000000 0.000000 -14.150532 -0.475485 1.566545 7.393963 -3.054964 5.572901 0.000000 0.000000 0.000000 -28.251405 1.422175 5.092703 26.289932 -10.578160 6.403095 0.000000 0.000000 0.000000 -19.199679 -3.146034 0.825061 22.338148 -9.837530 12.326443 0.000000 0.000000 0.000000 10.454506 -3.485160 3.677511 7.077894 4.523213 1.248396 0.000000 0.000000 0.000000 
0.001676 0.690964 -0.003372 4.716978 -3.131248 -13.060494 1.586996 -7.606116 -59.742064 -6.522427 -3.191619 78.482232 -11.866265 -25.832355 -0.260282 0.000000 0.000000 0.000000 -1.934493 7.426919 -56.498328 28.607839 -12.675653 51.539460 -53.397247 -56.016040 36.808639 0.000000 0.000000 0.000000 -3.248202 -1.359203 36.191389 -7.083722 -0.717757 -16.039333 -1.419719 -8.572581 22.203775 1.191052 1.820634 -13.258439 0.000000 0.000000 0.000000 6.144004 7.808339 -3.409858 -59.940890 -32.860292 1.498523 -50.790314 -40.361845 25.316701 10.553466 -23.294580 43.355752 -6.486157 -0.786914 -0.824636 32.112705 -5.512462 6.493996 0.000000 0.000000 0.000000 10.268741 -0.537559 0.479094 -14.021765 8.818976 8.546594 0.000000 0.000000 0.000000 48.788140 -3.833771 -1.422377 -30.223772 37.588411 21.037139 0.000000 0.000000 0.000000 22.708737 2.445936 -1.474110 -18.615572 15.953556 13.310321 0.000000 0.000000 0.000000 -14.315222 13.913826 9.458385 -6.081548 -14.263092 -2.276799 0.000000 0.000000 0.000000 -2.172933 18.885468 9.501321 60.491797 35.147090 4.624533 16.545080 59.976075 7.597537 -22.060084 7.353627 30.829749 5.327138 1.394037 -0.500904 -11.739417 2.258471 4.170447 0.000000 0.000000 0.000000 -14.660185 -0.164740 1.455026 5.098481 -2.433043 6.034955 0.000000 0.000000 0.000000 -28.609561 2.735825 4.585521 23.851414 -9.854957 7.240699 0.000000 0.000000 0.000000 -20.041092 -2.635098 0.685918 19.602436 -9.156862 12.779378 0.000000 0.000000 0.000000 9.733238 -3.955814 4.078166 6.996723 5.031648 1.076289 0.000000 0.000000 0.000000 
